<mxfile host="app.diagrams.net" agent="Mozilla/5.0 (Windows NT 10.0; Win64; x64) AppleWebKit/537.36 (KHTML, like Gecko) Chrome/132.0.0.0 YaBrowser/25.2.0.0 Safari/537.36" version="26.2.8">
  <diagram name="Страница — 1" id="aNKTUq7hrscin-4Q4CJX">
    <mxGraphModel grid="1" page="1" gridSize="10" guides="1" tooltips="1" connect="1" arrows="1" fold="1" pageScale="1" pageWidth="827" pageHeight="1169" math="0" shadow="0">
      <root>
        <mxCell id="0" />
        <mxCell id="1" parent="0" />
        <mxCell id="7G96iJF4oocn01JMDjI9-2" value="&lt;font style=&quot;font-size: 10px;&quot;&gt;Специалисты-исполнители отдела тестирования&lt;/font&gt;" style="swimlane;whiteSpace=wrap;html=1;swimlaneFillColor=default;" vertex="1" parent="1">
          <mxGeometry x="250" y="30" width="273" height="2540" as="geometry" />
        </mxCell>
        <mxCell id="7G96iJF4oocn01JMDjI9-23" value="Ознакомление с задачами по тестированию" style="points=[[0.25,0,0],[0.5,0,0],[0.75,0,0],[1,0.25,0],[1,0.5,0],[1,0.75,0],[0.75,1,0],[0.5,1,0],[0.25,1,0],[0,0.75,0],[0,0.5,0],[0,0.25,0]];shape=mxgraph.bpmn.task2;whiteSpace=wrap;rectStyle=rounded;size=10;html=1;container=1;expand=0;collapsible=0;taskMarker=user;" vertex="1" parent="7G96iJF4oocn01JMDjI9-2">
          <mxGeometry x="72" y="758" width="120" height="80" as="geometry" />
        </mxCell>
        <mxCell id="7G96iJF4oocn01JMDjI9-38" value="" style="points=[[0.145,0.145,0],[0.5,0,0],[0.855,0.145,0],[1,0.5,0],[0.855,0.855,0],[0.5,1,0],[0.145,0.855,0],[0,0.5,0]];shape=mxgraph.bpmn.event;html=1;verticalLabelPosition=bottom;labelBackgroundColor=#ffffff;verticalAlign=top;align=center;perimeter=ellipsePerimeter;outlineConnect=0;aspect=fixed;outline=throwing;symbol=message;" vertex="1" parent="7G96iJF4oocn01JMDjI9-23">
          <mxGeometry x="-15" y="25" width="30" height="30" as="geometry" />
        </mxCell>
        <mxCell id="7G96iJF4oocn01JMDjI9-26" value="&lt;span style=&quot;font-size: 9px;&quot;&gt;Выполнение запланированных тестов, ведение задач, ведение&lt;/span&gt;&lt;span style=&quot;font-size: 9px;&quot;&gt;&amp;nbsp;тестовой документации&lt;/span&gt;" style="points=[[0.25,0,0],[0.5,0,0],[0.75,0,0],[1,0.25,0],[1,0.5,0],[1,0.75,0],[0.75,1,0],[0.5,1,0],[0.25,1,0],[0,0.75,0],[0,0.5,0],[0,0.25,0]];shape=mxgraph.bpmn.task2;whiteSpace=wrap;rectStyle=rounded;size=10;html=1;container=1;expand=0;collapsible=0;taskMarker=user;" vertex="1" parent="7G96iJF4oocn01JMDjI9-2">
          <mxGeometry x="72" y="1210" width="120" height="80" as="geometry" />
        </mxCell>
        <mxCell id="7G96iJF4oocn01JMDjI9-54" value="" style="points=[[0.25,0.25,0],[0.5,0,0],[0.75,0.25,0],[1,0.5,0],[0.75,0.75,0],[0.5,1,0],[0.25,0.75,0],[0,0.5,0]];shape=mxgraph.bpmn.gateway2;html=1;verticalLabelPosition=bottom;labelBackgroundColor=#ffffff;verticalAlign=top;align=center;perimeter=rhombusPerimeter;outlineConnect=0;outline=none;symbol=none;gwType=exclusive;" vertex="1" parent="7G96iJF4oocn01JMDjI9-2">
          <mxGeometry x="107" y="1038" width="50" height="50" as="geometry" />
        </mxCell>
        <mxCell id="7G96iJF4oocn01JMDjI9-56" value="&lt;font style=&quot;font-size: 9px;&quot;&gt;Погружение в контекст продукта, ознакомление-эксплоринг&amp;nbsp;&lt;/font&gt;" style="points=[[0.25,0,0],[0.5,0,0],[0.75,0,0],[1,0.25,0],[1,0.5,0],[1,0.75,0],[0.75,1,0],[0.5,1,0],[0.25,1,0],[0,0.75,0],[0,0.5,0],[0,0.25,0]];shape=mxgraph.bpmn.task2;whiteSpace=wrap;rectStyle=rounded;size=10;html=1;container=1;expand=0;collapsible=0;taskMarker=user;" vertex="1" parent="7G96iJF4oocn01JMDjI9-2">
          <mxGeometry x="72" y="1110" width="120" height="80" as="geometry" />
        </mxCell>
        <mxCell id="7G96iJF4oocn01JMDjI9-59" style="edgeStyle=orthogonalEdgeStyle;rounded=0;orthogonalLoop=1;jettySize=auto;html=1;entryX=0.5;entryY=0;entryDx=0;entryDy=0;entryPerimeter=0;" edge="1" parent="7G96iJF4oocn01JMDjI9-2" source="7G96iJF4oocn01JMDjI9-54" target="7G96iJF4oocn01JMDjI9-56">
          <mxGeometry relative="1" as="geometry" />
        </mxCell>
        <mxCell id="7G96iJF4oocn01JMDjI9-62" value="&lt;font style=&quot;font-size: 8px;&quot;&gt;Не понятен&lt;/font&gt;" style="edgeLabel;html=1;align=center;verticalAlign=middle;resizable=0;points=[];" connectable="0" vertex="1" parent="7G96iJF4oocn01JMDjI9-59">
          <mxGeometry x="0.2153" relative="1" as="geometry">
            <mxPoint y="2" as="offset" />
          </mxGeometry>
        </mxCell>
        <mxCell id="7G96iJF4oocn01JMDjI9-60" style="edgeStyle=orthogonalEdgeStyle;rounded=0;orthogonalLoop=1;jettySize=auto;html=1;entryX=0.5;entryY=0;entryDx=0;entryDy=0;entryPerimeter=0;" edge="1" parent="7G96iJF4oocn01JMDjI9-2" source="7G96iJF4oocn01JMDjI9-56" target="7G96iJF4oocn01JMDjI9-26">
          <mxGeometry relative="1" as="geometry" />
        </mxCell>
        <mxCell id="7G96iJF4oocn01JMDjI9-61" style="edgeStyle=orthogonalEdgeStyle;rounded=0;orthogonalLoop=1;jettySize=auto;html=1;entryX=0;entryY=0.5;entryDx=0;entryDy=0;entryPerimeter=0;exitX=0;exitY=0.5;exitDx=0;exitDy=0;exitPerimeter=0;" edge="1" parent="7G96iJF4oocn01JMDjI9-2" source="7G96iJF4oocn01JMDjI9-54" target="7G96iJF4oocn01JMDjI9-26">
          <mxGeometry relative="1" as="geometry">
            <Array as="points">
              <mxPoint x="39" y="1063" />
              <mxPoint x="39" y="1250" />
            </Array>
            <mxPoint x="69" y="1330" as="targetPoint" />
          </mxGeometry>
        </mxCell>
        <mxCell id="7G96iJF4oocn01JMDjI9-63" value="Понятен" style="edgeLabel;html=1;align=center;verticalAlign=middle;resizable=0;points=[];fontSize=8;" connectable="0" vertex="1" parent="7G96iJF4oocn01JMDjI9-61">
          <mxGeometry x="-0.8248" y="1" relative="1" as="geometry">
            <mxPoint x="-37" y="32" as="offset" />
          </mxGeometry>
        </mxCell>
        <mxCell id="7G96iJF4oocn01JMDjI9-28" value="Подготовка результатов по выполненным задачам к передаче" style="points=[[0.25,0,0],[0.5,0,0],[0.75,0,0],[1,0.25,0],[1,0.5,0],[1,0.75,0],[0.75,1,0],[0.5,1,0],[0.25,1,0],[0,0.75,0],[0,0.5,0],[0,0.25,0]];shape=mxgraph.bpmn.task2;whiteSpace=wrap;rectStyle=rounded;size=10;html=1;container=1;expand=0;collapsible=0;taskMarker=user;" vertex="1" parent="7G96iJF4oocn01JMDjI9-2">
          <mxGeometry x="72" y="1727" width="120" height="80" as="geometry" />
        </mxCell>
        <mxCell id="7G96iJF4oocn01JMDjI9-77" value="" style="points=[[0.25,0.25,0],[0.5,0,0],[0.75,0.25,0],[1,0.5,0],[0.75,0.75,0],[0.5,1,0],[0.25,0.75,0],[0,0.5,0]];shape=mxgraph.bpmn.gateway2;html=1;verticalLabelPosition=bottom;labelBackgroundColor=#ffffff;verticalAlign=top;align=center;perimeter=rhombusPerimeter;outlineConnect=0;outline=none;symbol=none;gwType=parallel;" vertex="1" parent="7G96iJF4oocn01JMDjI9-2">
          <mxGeometry x="107" y="1837" width="50" height="50" as="geometry" />
        </mxCell>
        <mxCell id="Vr6VP41Z2sSly5By1xP8-8" value="&lt;font style=&quot;font-size: 10px;&quot;&gt;Получение фидбека по ревью и внесение изменений&lt;/font&gt;" style="points=[[0.25,0,0],[0.5,0,0],[0.75,0,0],[1,0.25,0],[1,0.5,0],[1,0.75,0],[0.75,1,0],[0.5,1,0],[0.25,1,0],[0,0.75,0],[0,0.5,0],[0,0.25,0]];shape=mxgraph.bpmn.task2;whiteSpace=wrap;rectStyle=rounded;size=10;html=1;container=1;expand=0;collapsible=0;taskMarker=user;" vertex="1" parent="7G96iJF4oocn01JMDjI9-2">
          <mxGeometry x="17" y="2016" width="111" height="80" as="geometry" />
        </mxCell>
        <mxCell id="d0QwB3SsYMbNnIM99n3p-144" style="edgeStyle=orthogonalEdgeStyle;rounded=0;orthogonalLoop=1;jettySize=auto;html=1;entryX=0.5;entryY=0;entryDx=0;entryDy=0;entryPerimeter=0;" edge="1" parent="7G96iJF4oocn01JMDjI9-2" source="d0QwB3SsYMbNnIM99n3p-1" target="7G96iJF4oocn01JMDjI9-54">
          <mxGeometry relative="1" as="geometry">
            <mxPoint x="161" y="1080" as="targetPoint" />
          </mxGeometry>
        </mxCell>
        <mxCell id="d0QwB3SsYMbNnIM99n3p-1" value="Настройка окружения для тестов" style="points=[[0.25,0,0],[0.5,0,0],[0.75,0,0],[1,0.25,0],[1,0.5,0],[1,0.75,0],[0.75,1,0],[0.5,1,0],[0.25,1,0],[0,0.75,0],[0,0.5,0],[0,0.25,0]];shape=mxgraph.bpmn.task2;whiteSpace=wrap;rectStyle=rounded;size=10;html=1;container=1;expand=0;collapsible=0;taskMarker=user;" vertex="1" parent="7G96iJF4oocn01JMDjI9-2">
          <mxGeometry x="72" y="940" width="120" height="80" as="geometry" />
        </mxCell>
        <mxCell id="d0QwB3SsYMbNnIM99n3p-138" value="" style="points=[[0.25,0.25,0],[0.5,0,0],[0.75,0.25,0],[1,0.5,0],[0.75,0.75,0],[0.5,1,0],[0.25,0.75,0],[0,0.5,0]];shape=mxgraph.bpmn.gateway2;html=1;verticalLabelPosition=bottom;labelBackgroundColor=#ffffff;verticalAlign=top;align=center;perimeter=rhombusPerimeter;outlineConnect=0;outline=none;symbol=none;gwType=exclusive;" vertex="1" parent="7G96iJF4oocn01JMDjI9-2">
          <mxGeometry x="107" y="860" width="50" height="50" as="geometry" />
        </mxCell>
        <mxCell id="d0QwB3SsYMbNnIM99n3p-139" style="edgeStyle=orthogonalEdgeStyle;rounded=0;orthogonalLoop=1;jettySize=auto;html=1;entryX=0.5;entryY=0;entryDx=0;entryDy=0;entryPerimeter=0;" edge="1" parent="7G96iJF4oocn01JMDjI9-2" source="7G96iJF4oocn01JMDjI9-23" target="d0QwB3SsYMbNnIM99n3p-138">
          <mxGeometry relative="1" as="geometry" />
        </mxCell>
        <mxCell id="d0QwB3SsYMbNnIM99n3p-141" style="edgeStyle=orthogonalEdgeStyle;rounded=0;orthogonalLoop=1;jettySize=auto;html=1;entryX=0.5;entryY=0;entryDx=0;entryDy=0;entryPerimeter=0;" edge="1" parent="7G96iJF4oocn01JMDjI9-2" source="d0QwB3SsYMbNnIM99n3p-138" target="d0QwB3SsYMbNnIM99n3p-1">
          <mxGeometry relative="1" as="geometry" />
        </mxCell>
        <mxCell id="d0QwB3SsYMbNnIM99n3p-142" value="Да" style="edgeLabel;html=1;align=center;verticalAlign=middle;resizable=0;points=[];" connectable="0" vertex="1" parent="d0QwB3SsYMbNnIM99n3p-141">
          <mxGeometry x="-0.7037" y="-1" relative="1" as="geometry">
            <mxPoint x="1" y="3" as="offset" />
          </mxGeometry>
        </mxCell>
        <mxCell id="d0QwB3SsYMbNnIM99n3p-143" style="edgeStyle=orthogonalEdgeStyle;rounded=0;orthogonalLoop=1;jettySize=auto;html=1;entryX=1;entryY=0.5;entryDx=0;entryDy=0;entryPerimeter=0;exitX=1;exitY=0.5;exitDx=0;exitDy=0;exitPerimeter=0;" edge="1" parent="7G96iJF4oocn01JMDjI9-2" source="d0QwB3SsYMbNnIM99n3p-138" target="7G96iJF4oocn01JMDjI9-54">
          <mxGeometry relative="1" as="geometry">
            <Array as="points">
              <mxPoint x="211" y="885" />
              <mxPoint x="211" y="1063" />
            </Array>
          </mxGeometry>
        </mxCell>
        <mxCell id="d0QwB3SsYMbNnIM99n3p-145" value="Нет" style="edgeLabel;html=1;align=center;verticalAlign=middle;resizable=0;points=[];" connectable="0" vertex="1" parent="d0QwB3SsYMbNnIM99n3p-143">
          <mxGeometry x="-0.3656" relative="1" as="geometry">
            <mxPoint x="-3" y="-2" as="offset" />
          </mxGeometry>
        </mxCell>
        <mxCell id="d0QwB3SsYMbNnIM99n3p-160" value="Ретест по баг-репортам предыдущих итераций" style="points=[[0.25,0,0],[0.5,0,0],[0.75,0,0],[1,0.25,0],[1,0.5,0],[1,0.75,0],[0.75,1,0],[0.5,1,0],[0.25,1,0],[0,0.75,0],[0,0.5,0],[0,0.25,0]];shape=mxgraph.bpmn.task2;whiteSpace=wrap;rectStyle=rounded;size=10;html=1;container=1;expand=0;collapsible=0;taskMarker=user;" vertex="1" parent="7G96iJF4oocn01JMDjI9-2">
          <mxGeometry x="72" y="1627" width="120" height="80" as="geometry" />
        </mxCell>
        <mxCell id="d0QwB3SsYMbNnIM99n3p-162" style="edgeStyle=orthogonalEdgeStyle;rounded=0;orthogonalLoop=1;jettySize=auto;html=1;entryX=0.5;entryY=0;entryDx=0;entryDy=0;entryPerimeter=0;" edge="1" parent="7G96iJF4oocn01JMDjI9-2" source="d0QwB3SsYMbNnIM99n3p-160" target="7G96iJF4oocn01JMDjI9-28">
          <mxGeometry relative="1" as="geometry" />
        </mxCell>
        <mxCell id="d0QwB3SsYMbNnIM99n3p-140" value="&lt;font style=&quot;font-size: 9px;&quot;&gt;&lt;b&gt;Требуется настройка окружения?&lt;/b&gt;&lt;/font&gt;" style="text;html=1;align=center;verticalAlign=middle;whiteSpace=wrap;rounded=0;" vertex="1" parent="7G96iJF4oocn01JMDjI9-2">
          <mxGeometry y="870" width="121" height="30" as="geometry" />
        </mxCell>
        <mxCell id="7G96iJF4oocn01JMDjI9-55" value="&lt;b&gt;&lt;font style=&quot;font-size: 9px;&quot;&gt;Контекст объекта тестирования понятен?&lt;/font&gt;&lt;/b&gt;" style="text;html=1;align=center;verticalAlign=middle;whiteSpace=wrap;rounded=0;" vertex="1" parent="7G96iJF4oocn01JMDjI9-2">
          <mxGeometry x="4" y="1029" width="117" height="30" as="geometry" />
        </mxCell>
        <mxCell id="d0QwB3SsYMbNnIM99n3p-163" style="edgeStyle=orthogonalEdgeStyle;rounded=0;orthogonalLoop=1;jettySize=auto;html=1;entryX=0.5;entryY=0;entryDx=0;entryDy=0;entryPerimeter=0;" edge="1" parent="7G96iJF4oocn01JMDjI9-2" source="7G96iJF4oocn01JMDjI9-28" target="7G96iJF4oocn01JMDjI9-77">
          <mxGeometry relative="1" as="geometry" />
        </mxCell>
        <mxCell id="ULdD-YotpRUASCXup5tU-1" value="Формирование и внедрение новых тестов" style="points=[[0.25,0,0],[0.5,0,0],[0.75,0,0],[1,0.25,0],[1,0.5,0],[1,0.75,0],[0.75,1,0],[0.5,1,0],[0.25,1,0],[0,0.75,0],[0,0.5,0],[0,0.25,0]];shape=mxgraph.bpmn.task2;whiteSpace=wrap;rectStyle=rounded;size=10;html=1;container=1;expand=0;collapsible=0;taskMarker=user;" vertex="1" parent="7G96iJF4oocn01JMDjI9-2">
          <mxGeometry x="72" y="1418" width="120" height="80" as="geometry" />
        </mxCell>
        <mxCell id="ULdD-YotpRUASCXup5tU-5" value="" style="points=[[0.25,0.25,0],[0.5,0,0],[0.75,0.25,0],[1,0.5,0],[0.75,0.75,0],[0.5,1,0],[0.25,0.75,0],[0,0.5,0]];shape=mxgraph.bpmn.gateway2;html=1;verticalLabelPosition=bottom;labelBackgroundColor=#ffffff;verticalAlign=top;align=center;perimeter=rhombusPerimeter;outlineConnect=0;outline=none;symbol=none;gwType=exclusive;" vertex="1" parent="7G96iJF4oocn01JMDjI9-2">
          <mxGeometry x="107" y="1538" width="50" height="50" as="geometry" />
        </mxCell>
        <mxCell id="ULdD-YotpRUASCXup5tU-6" style="edgeStyle=orthogonalEdgeStyle;rounded=0;orthogonalLoop=1;jettySize=auto;html=1;entryX=0.5;entryY=0;entryDx=0;entryDy=0;entryPerimeter=0;" edge="1" parent="7G96iJF4oocn01JMDjI9-2" source="ULdD-YotpRUASCXup5tU-1" target="ULdD-YotpRUASCXup5tU-5">
          <mxGeometry relative="1" as="geometry" />
        </mxCell>
        <mxCell id="ULdD-YotpRUASCXup5tU-7" style="edgeStyle=orthogonalEdgeStyle;rounded=0;orthogonalLoop=1;jettySize=auto;html=1;entryX=0.5;entryY=0;entryDx=0;entryDy=0;entryPerimeter=0;" edge="1" parent="7G96iJF4oocn01JMDjI9-2" source="ULdD-YotpRUASCXup5tU-5" target="d0QwB3SsYMbNnIM99n3p-160">
          <mxGeometry relative="1" as="geometry" />
        </mxCell>
        <mxCell id="ULdD-YotpRUASCXup5tU-10" value="Да" style="edgeLabel;html=1;align=center;verticalAlign=middle;resizable=0;points=[];" connectable="0" vertex="1" parent="ULdD-YotpRUASCXup5tU-7">
          <mxGeometry x="-0.2566" relative="1" as="geometry">
            <mxPoint as="offset" />
          </mxGeometry>
        </mxCell>
        <mxCell id="ULdD-YotpRUASCXup5tU-8" style="edgeStyle=orthogonalEdgeStyle;rounded=0;orthogonalLoop=1;jettySize=auto;html=1;entryX=1;entryY=0.5;entryDx=0;entryDy=0;entryPerimeter=0;" edge="1" parent="7G96iJF4oocn01JMDjI9-2" source="ULdD-YotpRUASCXup5tU-5" target="7G96iJF4oocn01JMDjI9-28">
          <mxGeometry relative="1" as="geometry">
            <Array as="points">
              <mxPoint x="211" y="1563" />
              <mxPoint x="211" y="1767" />
            </Array>
          </mxGeometry>
        </mxCell>
        <mxCell id="ULdD-YotpRUASCXup5tU-11" value="Нет" style="edgeLabel;html=1;align=center;verticalAlign=middle;resizable=0;points=[];" connectable="0" vertex="1" parent="ULdD-YotpRUASCXup5tU-8">
          <mxGeometry x="-0.3241" relative="1" as="geometry">
            <mxPoint y="1" as="offset" />
          </mxGeometry>
        </mxCell>
        <mxCell id="ULdD-YotpRUASCXup5tU-9" value="&lt;b&gt;Были баг-репорты в предыдущих итерациях системы?&lt;/b&gt;" style="text;html=1;align=center;verticalAlign=middle;whiteSpace=wrap;rounded=0;" vertex="1" parent="7G96iJF4oocn01JMDjI9-2">
          <mxGeometry x="12" y="1548" width="101" height="30" as="geometry" />
        </mxCell>
        <mxCell id="fY97J-WMy2Ej0dHMJJVT-24" value="Формирование баг-репортов" style="points=[[0.25,0,0],[0.5,0,0],[0.75,0,0],[1,0.25,0],[1,0.5,0],[1,0.75,0],[0.75,1,0],[0.5,1,0],[0.25,1,0],[0,0.75,0],[0,0.5,0],[0,0.25,0]];shape=mxgraph.bpmn.task2;whiteSpace=wrap;rectStyle=rounded;size=10;html=1;container=1;expand=0;collapsible=0;taskMarker=abstract;isLoopSub=1;" vertex="1" parent="7G96iJF4oocn01JMDjI9-2">
          <mxGeometry x="72" y="1310" width="120" height="80" as="geometry" />
        </mxCell>
        <mxCell id="fY97J-WMy2Ej0dHMJJVT-25" style="edgeStyle=orthogonalEdgeStyle;rounded=0;orthogonalLoop=1;jettySize=auto;html=1;entryX=0.5;entryY=0;entryDx=0;entryDy=0;entryPerimeter=0;" edge="1" parent="7G96iJF4oocn01JMDjI9-2" source="7G96iJF4oocn01JMDjI9-26" target="fY97J-WMy2Ej0dHMJJVT-24">
          <mxGeometry relative="1" as="geometry" />
        </mxCell>
        <mxCell id="fY97J-WMy2Ej0dHMJJVT-26" style="edgeStyle=orthogonalEdgeStyle;rounded=0;orthogonalLoop=1;jettySize=auto;html=1;entryX=0.5;entryY=0;entryDx=0;entryDy=0;entryPerimeter=0;" edge="1" parent="7G96iJF4oocn01JMDjI9-2" source="fY97J-WMy2Ej0dHMJJVT-24" target="ULdD-YotpRUASCXup5tU-1">
          <mxGeometry relative="1" as="geometry" />
        </mxCell>
        <mxCell id="fY97J-WMy2Ej0dHMJJVT-27" value="Заведение баг-репортов в ITSM" style="points=[[0.25,0,0],[0.5,0,0],[0.75,0,0],[1,0.25,0],[1,0.5,0],[1,0.75,0],[0.75,1,0],[0.5,1,0],[0.25,1,0],[0,0.75,0],[0,0.5,0],[0,0.25,0]];shape=mxgraph.bpmn.task2;whiteSpace=wrap;rectStyle=rounded;size=10;html=1;container=1;expand=0;collapsible=0;taskMarker=abstract;isLoopSub=1;" vertex="1" parent="7G96iJF4oocn01JMDjI9-2">
          <mxGeometry x="17" y="2134" width="120" height="80" as="geometry" />
        </mxCell>
        <mxCell id="7G96iJF4oocn01JMDjI9-112" value="Работа отдела тестирования по итерациям" style="swimlane;whiteSpace=wrap;html=1;" vertex="1" parent="1">
          <mxGeometry x="-61" y="10" width="580" height="20" as="geometry" />
        </mxCell>
        <mxCell id="d0QwB3SsYMbNnIM99n3p-8" value="&lt;font style=&quot;font-size: 11px;&quot;&gt;Руководство отдела тестирования&lt;/font&gt;" style="swimlane;whiteSpace=wrap;html=1;swimlaneFillColor=default;" vertex="1" parent="1">
          <mxGeometry x="-61" y="30" width="311" height="2540" as="geometry" />
        </mxCell>
        <mxCell id="d0QwB3SsYMbNnIM99n3p-54" value="" style="points=[[0.145,0.145,0],[0.5,0,0],[0.855,0.145,0],[1,0.5,0],[0.855,0.855,0],[0.5,1,0],[0.145,0.855,0],[0,0.5,0]];shape=mxgraph.bpmn.event;html=1;verticalLabelPosition=bottom;labelBackgroundColor=#ffffff;verticalAlign=top;align=center;perimeter=ellipsePerimeter;outlineConnect=0;aspect=fixed;outline=standard;symbol=general;" vertex="1" parent="d0QwB3SsYMbNnIM99n3p-8">
          <mxGeometry x="140" y="70" width="50" height="50" as="geometry" />
        </mxCell>
        <mxCell id="7G96iJF4oocn01JMDjI9-8" value="&lt;b&gt;Получена задача на начало итерации тестирования&lt;/b&gt;" style="text;html=1;strokeColor=none;fillColor=none;align=center;verticalAlign=middle;whiteSpace=wrap;rounded=0;" vertex="1" parent="d0QwB3SsYMbNnIM99n3p-8">
          <mxGeometry x="51.74999999999997" y="30" width="246.5" height="30" as="geometry" />
        </mxCell>
        <mxCell id="d0QwB3SsYMbNnIM99n3p-104" value="&lt;font style=&quot;font-size: 9px;&quot;&gt;Создание тест-плана в формальном документе/неформальном виде&lt;/font&gt;" style="points=[[0.25,0,0],[0.5,0,0],[0.75,0,0],[1,0.25,0],[1,0.5,0],[1,0.75,0],[0.75,1,0],[0.5,1,0],[0.25,1,0],[0,0.75,0],[0,0.5,0],[0,0.25,0]];shape=mxgraph.bpmn.task2;whiteSpace=wrap;rectStyle=rounded;size=10;html=1;container=1;expand=0;collapsible=0;taskMarker=user;" vertex="1" parent="d0QwB3SsYMbNnIM99n3p-8">
          <mxGeometry x="105" y="347" width="120" height="80" as="geometry" />
        </mxCell>
        <mxCell id="d0QwB3SsYMbNnIM99n3p-105" value="Выяснение, проработка ТЗ и требований по тестированию" style="points=[[0.25,0,0],[0.5,0,0],[0.75,0,0],[1,0.25,0],[1,0.5,0],[1,0.75,0],[0.75,1,0],[0.5,1,0],[0.25,1,0],[0,0.75,0],[0,0.5,0],[0,0.25,0]];shape=mxgraph.bpmn.task2;whiteSpace=wrap;rectStyle=rounded;size=10;html=1;container=1;expand=0;collapsible=0;taskMarker=user;" vertex="1" parent="d0QwB3SsYMbNnIM99n3p-8">
          <mxGeometry x="105" y="239" width="120" height="80" as="geometry" />
        </mxCell>
        <mxCell id="d0QwB3SsYMbNnIM99n3p-106" style="edgeStyle=orthogonalEdgeStyle;rounded=0;orthogonalLoop=1;jettySize=auto;html=1;entryX=0.5;entryY=0;entryDx=0;entryDy=0;entryPerimeter=0;" edge="1" parent="d0QwB3SsYMbNnIM99n3p-8" source="d0QwB3SsYMbNnIM99n3p-105" target="d0QwB3SsYMbNnIM99n3p-104">
          <mxGeometry relative="1" as="geometry" />
        </mxCell>
        <mxCell id="d0QwB3SsYMbNnIM99n3p-151" style="edgeStyle=orthogonalEdgeStyle;rounded=0;orthogonalLoop=1;jettySize=auto;html=1;" edge="1" parent="d0QwB3SsYMbNnIM99n3p-8" source="d0QwB3SsYMbNnIM99n3p-107" target="d0QwB3SsYMbNnIM99n3p-126">
          <mxGeometry relative="1" as="geometry" />
        </mxCell>
        <mxCell id="d0QwB3SsYMbNnIM99n3p-107" value="&lt;font style=&quot;font-size: 9px;&quot;&gt;Инициация встречи, информирование и обсуждение с командой тестирования.&amp;nbsp;&lt;/font&gt;" style="points=[[0.25,0,0],[0.5,0,0],[0.75,0,0],[1,0.25,0],[1,0.5,0],[1,0.75,0],[0.75,1,0],[0.5,1,0],[0.25,1,0],[0,0.75,0],[0,0.5,0],[0,0.25,0]];shape=mxgraph.bpmn.task2;whiteSpace=wrap;rectStyle=rounded;size=10;html=1;container=1;expand=0;collapsible=0;taskMarker=user;" vertex="1" parent="d0QwB3SsYMbNnIM99n3p-8">
          <mxGeometry x="105" y="450" width="120" height="80" as="geometry" />
        </mxCell>
        <mxCell id="d0QwB3SsYMbNnIM99n3p-108" style="edgeStyle=orthogonalEdgeStyle;rounded=0;orthogonalLoop=1;jettySize=auto;html=1;entryX=0.5;entryY=0;entryDx=0;entryDy=0;entryPerimeter=0;" edge="1" parent="d0QwB3SsYMbNnIM99n3p-8" source="d0QwB3SsYMbNnIM99n3p-104" target="d0QwB3SsYMbNnIM99n3p-107">
          <mxGeometry relative="1" as="geometry" />
        </mxCell>
        <mxCell id="d0QwB3SsYMbNnIM99n3p-109" value="" style="points=[[0.25,0.25,0],[0.5,0,0],[0.75,0.25,0],[1,0.5,0],[0.75,0.75,0],[0.5,1,0],[0.25,0.75,0],[0,0.5,0]];shape=mxgraph.bpmn.gateway2;html=1;verticalLabelPosition=bottom;labelBackgroundColor=#ffffff;verticalAlign=top;align=center;perimeter=rhombusPerimeter;outlineConnect=0;outline=none;symbol=none;gwType=exclusive;" vertex="1" parent="d0QwB3SsYMbNnIM99n3p-8">
          <mxGeometry x="140" y="150" width="50" height="50" as="geometry" />
        </mxCell>
        <mxCell id="d0QwB3SsYMbNnIM99n3p-110" style="edgeStyle=orthogonalEdgeStyle;rounded=0;orthogonalLoop=1;jettySize=auto;html=1;exitX=0.5;exitY=1;exitDx=0;exitDy=0;exitPerimeter=0;entryX=0.5;entryY=0;entryDx=0;entryDy=0;entryPerimeter=0;" edge="1" parent="d0QwB3SsYMbNnIM99n3p-8" source="d0QwB3SsYMbNnIM99n3p-109" target="d0QwB3SsYMbNnIM99n3p-105">
          <mxGeometry relative="1" as="geometry">
            <mxPoint x="159.63" y="208" as="sourcePoint" />
            <mxPoint x="160" y="238" as="targetPoint" />
            <Array as="points">
              <mxPoint x="165" y="238" />
            </Array>
          </mxGeometry>
        </mxCell>
        <mxCell id="d0QwB3SsYMbNnIM99n3p-111" value="&lt;font style=&quot;font-size: 9px;&quot;&gt;Внеплановая&lt;/font&gt;" style="edgeLabel;html=1;align=center;verticalAlign=middle;resizable=0;points=[];" connectable="0" vertex="1" parent="d0QwB3SsYMbNnIM99n3p-110">
          <mxGeometry x="0.4684" relative="1" as="geometry">
            <mxPoint y="-12" as="offset" />
          </mxGeometry>
        </mxCell>
        <mxCell id="d0QwB3SsYMbNnIM99n3p-112" style="edgeStyle=orthogonalEdgeStyle;rounded=0;orthogonalLoop=1;jettySize=auto;html=1;entryX=1;entryY=0.5;entryDx=0;entryDy=0;entryPerimeter=0;exitX=1;exitY=0.5;exitDx=0;exitDy=0;exitPerimeter=0;" edge="1" parent="d0QwB3SsYMbNnIM99n3p-8" source="d0QwB3SsYMbNnIM99n3p-109" target="d0QwB3SsYMbNnIM99n3p-104">
          <mxGeometry relative="1" as="geometry">
            <mxPoint x="185" y="388" as="targetPoint" />
            <Array as="points">
              <mxPoint x="265" y="175" />
              <mxPoint x="265" y="387" />
            </Array>
          </mxGeometry>
        </mxCell>
        <mxCell id="d0QwB3SsYMbNnIM99n3p-113" value="&lt;font style=&quot;font-size: 9px;&quot;&gt;Плановая&lt;/font&gt;" style="edgeLabel;html=1;align=center;verticalAlign=middle;resizable=0;points=[];" connectable="0" vertex="1" parent="d0QwB3SsYMbNnIM99n3p-112">
          <mxGeometry x="-0.3493" relative="1" as="geometry">
            <mxPoint y="10" as="offset" />
          </mxGeometry>
        </mxCell>
        <mxCell id="d0QwB3SsYMbNnIM99n3p-114" value="&lt;b&gt;&lt;font style=&quot;font-size: 11px;&quot;&gt;Запланированная итерация или внеплановая?&lt;/font&gt;&lt;/b&gt;" style="text;html=1;align=center;verticalAlign=middle;whiteSpace=wrap;rounded=0;" vertex="1" parent="d0QwB3SsYMbNnIM99n3p-8">
          <mxGeometry x="48" y="160" width="85" height="30" as="geometry" />
        </mxCell>
        <mxCell id="d0QwB3SsYMbNnIM99n3p-115" value="Проработка и аналитическая деятельность" style="text;html=1;strokeColor=none;fillColor=none;align=center;verticalAlign=middle;whiteSpace=wrap;rounded=0;" vertex="1" parent="d0QwB3SsYMbNnIM99n3p-8">
          <mxGeometry x="17" y="378" width="80" height="30" as="geometry" />
        </mxCell>
        <mxCell id="d0QwB3SsYMbNnIM99n3p-116" value="В эту таску включены контакты и коммуникации&amp;nbsp;" style="text;html=1;strokeColor=none;fillColor=none;align=center;verticalAlign=middle;whiteSpace=wrap;rounded=0;" vertex="1" parent="d0QwB3SsYMbNnIM99n3p-8">
          <mxGeometry x="20" y="238" width="80" height="50" as="geometry" />
        </mxCell>
        <mxCell id="d0QwB3SsYMbNnIM99n3p-117" value="" style="shape=partialRectangle;whiteSpace=wrap;html=1;top=0;left=0;fillColor=none;" vertex="1" parent="d0QwB3SsYMbNnIM99n3p-8">
          <mxGeometry x="61" y="378" width="40" height="40" as="geometry" />
        </mxCell>
        <mxCell id="d0QwB3SsYMbNnIM99n3p-118" value="" style="shape=partialRectangle;whiteSpace=wrap;html=1;top=0;left=0;fillColor=none;" vertex="1" parent="d0QwB3SsYMbNnIM99n3p-8">
          <mxGeometry x="61" y="238" width="40" height="60" as="geometry" />
        </mxCell>
        <mxCell id="d0QwB3SsYMbNnIM99n3p-119" value="" style="group" connectable="0" vertex="1" parent="d0QwB3SsYMbNnIM99n3p-8">
          <mxGeometry x="105" y="757.5" width="130" height="80" as="geometry" />
        </mxCell>
        <mxCell id="d0QwB3SsYMbNnIM99n3p-120" value="&lt;font style=&quot;font-size: 9px;&quot;&gt;Назначение ролей&amp;nbsp;&lt;/font&gt;&lt;div&gt;&lt;font style=&quot;font-size: 9px;&quot;&gt;и задач&lt;/font&gt;&lt;/div&gt;" style="points=[[0.25,0,0],[0.5,0,0],[0.75,0,0],[1,0.25,0],[1,0.5,0],[1,0.75,0],[0.75,1,0],[0.5,1,0],[0.25,1,0],[0,0.75,0],[0,0.5,0],[0,0.25,0]];shape=mxgraph.bpmn.task2;whiteSpace=wrap;rectStyle=rounded;size=10;html=1;container=1;expand=0;collapsible=0;taskMarker=user;" vertex="1" parent="d0QwB3SsYMbNnIM99n3p-119">
          <mxGeometry width="120" height="80" as="geometry" />
        </mxCell>
        <mxCell id="d0QwB3SsYMbNnIM99n3p-121" value="" style="points=[[0.145,0.145,0],[0.5,0,0],[0.855,0.145,0],[1,0.5,0],[0.855,0.855,0],[0.5,1,0],[0.145,0.855,0],[0,0.5,0]];shape=mxgraph.bpmn.event;html=1;verticalLabelPosition=bottom;labelBackgroundColor=#ffffff;verticalAlign=top;align=center;perimeter=ellipsePerimeter;outlineConnect=0;aspect=fixed;outline=standard;symbol=message;" vertex="1" parent="d0QwB3SsYMbNnIM99n3p-119">
          <mxGeometry x="105" y="27.5" width="25" height="25" as="geometry" />
        </mxCell>
        <mxCell id="d0QwB3SsYMbNnIM99n3p-122" value="" style="group" connectable="0" vertex="1" parent="d0QwB3SsYMbNnIM99n3p-8">
          <mxGeometry x="30" y="750" width="80" height="60" as="geometry" />
        </mxCell>
        <mxCell id="d0QwB3SsYMbNnIM99n3p-123" value="Включено ведение задач в Jira/TMS" style="text;html=1;strokeColor=none;fillColor=none;align=center;verticalAlign=middle;whiteSpace=wrap;rounded=0;" vertex="1" parent="d0QwB3SsYMbNnIM99n3p-122">
          <mxGeometry y="15" width="80" height="30" as="geometry" />
        </mxCell>
        <mxCell id="d0QwB3SsYMbNnIM99n3p-124" value="" style="shape=partialRectangle;whiteSpace=wrap;html=1;top=0;left=0;fillColor=none;" vertex="1" parent="d0QwB3SsYMbNnIM99n3p-8">
          <mxGeometry x="60" y="757.5" width="40" height="60" as="geometry" />
        </mxCell>
        <mxCell id="d0QwB3SsYMbNnIM99n3p-125" value="&lt;font style=&quot;font-size: 9px;&quot;&gt;&lt;b&gt;Для проведения тестирования необходимо тестовое окружение?&lt;/b&gt;&lt;/font&gt;" style="text;html=1;align=center;verticalAlign=middle;whiteSpace=wrap;rounded=0;" vertex="1" parent="d0QwB3SsYMbNnIM99n3p-8">
          <mxGeometry x="35.25" y="556" width="120" height="30" as="geometry" />
        </mxCell>
        <mxCell id="d0QwB3SsYMbNnIM99n3p-126" value="" style="points=[[0.25,0.25,0],[0.5,0,0],[0.75,0.25,0],[1,0.5,0],[0.75,0.75,0],[0.5,1,0],[0.25,0.75,0],[0,0.5,0]];shape=mxgraph.bpmn.gateway2;html=1;verticalLabelPosition=bottom;labelBackgroundColor=#ffffff;verticalAlign=top;align=center;perimeter=rhombusPerimeter;outlineConnect=0;outline=none;symbol=none;gwType=exclusive;" vertex="1" parent="d0QwB3SsYMbNnIM99n3p-8">
          <mxGeometry x="140" y="546" width="50" height="50" as="geometry" />
        </mxCell>
        <mxCell id="d0QwB3SsYMbNnIM99n3p-134" style="edgeStyle=orthogonalEdgeStyle;rounded=0;orthogonalLoop=1;jettySize=auto;html=1;entryX=0.5;entryY=0;entryDx=0;entryDy=0;entryPerimeter=0;" edge="1" parent="d0QwB3SsYMbNnIM99n3p-8" source="d0QwB3SsYMbNnIM99n3p-54" target="d0QwB3SsYMbNnIM99n3p-109">
          <mxGeometry relative="1" as="geometry" />
        </mxCell>
        <mxCell id="d0QwB3SsYMbNnIM99n3p-72" value="&lt;font style=&quot;font-size: 10px;&quot;&gt;Запрос и получение окружения/доступов&amp;nbsp;для тестирования&lt;/font&gt;" style="points=[[0.25,0,0],[0.5,0,0],[0.75,0,0],[1,0.25,0],[1,0.5,0],[1,0.75,0],[0.75,1,0],[0.5,1,0],[0.25,1,0],[0,0.75,0],[0,0.5,0],[0,0.25,0]];shape=mxgraph.bpmn.task2;whiteSpace=wrap;rectStyle=rounded;size=10;html=1;container=1;expand=0;collapsible=0;taskMarker=user;" vertex="1" parent="d0QwB3SsYMbNnIM99n3p-8">
          <mxGeometry x="105" y="627.5" width="120" height="80" as="geometry" />
        </mxCell>
        <mxCell id="d0QwB3SsYMbNnIM99n3p-135" style="edgeStyle=orthogonalEdgeStyle;rounded=0;orthogonalLoop=1;jettySize=auto;html=1;entryX=0.5;entryY=0;entryDx=0;entryDy=0;entryPerimeter=0;" edge="1" parent="d0QwB3SsYMbNnIM99n3p-8" source="d0QwB3SsYMbNnIM99n3p-126" target="d0QwB3SsYMbNnIM99n3p-72">
          <mxGeometry relative="1" as="geometry" />
        </mxCell>
        <mxCell id="d0QwB3SsYMbNnIM99n3p-147" value="&lt;font style=&quot;font-size: 7px;&quot;&gt;Да&lt;/font&gt;" style="edgeLabel;html=1;align=center;verticalAlign=middle;resizable=0;points=[];fontStyle=1" connectable="0" vertex="1" parent="d0QwB3SsYMbNnIM99n3p-135">
          <mxGeometry x="0.4528" relative="1" as="geometry">
            <mxPoint y="-8" as="offset" />
          </mxGeometry>
        </mxCell>
        <mxCell id="d0QwB3SsYMbNnIM99n3p-136" style="edgeStyle=orthogonalEdgeStyle;rounded=0;orthogonalLoop=1;jettySize=auto;html=1;entryX=0.5;entryY=0;entryDx=0;entryDy=0;entryPerimeter=0;" edge="1" parent="d0QwB3SsYMbNnIM99n3p-8" source="d0QwB3SsYMbNnIM99n3p-72" target="d0QwB3SsYMbNnIM99n3p-120">
          <mxGeometry relative="1" as="geometry" />
        </mxCell>
        <mxCell id="d0QwB3SsYMbNnIM99n3p-149" style="edgeStyle=orthogonalEdgeStyle;rounded=0;orthogonalLoop=1;jettySize=auto;html=1;entryX=0.75;entryY=0;entryDx=0;entryDy=0;entryPerimeter=0;" edge="1" parent="d0QwB3SsYMbNnIM99n3p-8" source="d0QwB3SsYMbNnIM99n3p-126" target="d0QwB3SsYMbNnIM99n3p-120">
          <mxGeometry relative="1" as="geometry">
            <Array as="points">
              <mxPoint x="241" y="571" />
              <mxPoint x="241" y="740" />
              <mxPoint x="195" y="740" />
            </Array>
          </mxGeometry>
        </mxCell>
        <mxCell id="d0QwB3SsYMbNnIM99n3p-150" value="&lt;font style=&quot;font-size: 7px;&quot;&gt;Нет&lt;/font&gt;" style="edgeLabel;html=1;align=center;verticalAlign=middle;resizable=0;points=[];fontSize=5;fontStyle=1" connectable="0" vertex="1" parent="d0QwB3SsYMbNnIM99n3p-149">
          <mxGeometry x="-0.421" relative="1" as="geometry">
            <mxPoint x="-1" y="6" as="offset" />
          </mxGeometry>
        </mxCell>
        <mxCell id="d0QwB3SsYMbNnIM99n3p-73" value="Получение и анализ полученных результатов" style="points=[[0.25,0,0],[0.5,0,0],[0.75,0,0],[1,0.25,0],[1,0.5,0],[1,0.75,0],[0.75,1,0],[0.5,1,0],[0.25,1,0],[0,0.75,0],[0,0.5,0],[0,0.25,0]];shape=mxgraph.bpmn.task2;whiteSpace=wrap;rectStyle=rounded;size=10;html=1;container=1;expand=0;collapsible=0;taskMarker=send;" vertex="1" parent="d0QwB3SsYMbNnIM99n3p-8">
          <mxGeometry x="104.5" y="1822" width="120" height="80" as="geometry" />
        </mxCell>
        <mxCell id="d0QwB3SsYMbNnIM99n3p-74" value="Ревью тестовой документации подготовленной специалистами" style="points=[[0.25,0,0],[0.5,0,0],[0.75,0,0],[1,0.25,0],[1,0.5,0],[1,0.75,0],[0.75,1,0],[0.5,1,0],[0.25,1,0],[0,0.75,0],[0,0.5,0],[0,0.25,0]];shape=mxgraph.bpmn.task2;whiteSpace=wrap;rectStyle=rounded;size=10;html=1;container=1;expand=0;collapsible=0;taskMarker=user;fontSize=11;" vertex="1" parent="d0QwB3SsYMbNnIM99n3p-8">
          <mxGeometry x="104.5" y="1930" width="120" height="80" as="geometry" />
        </mxCell>
        <mxCell id="d0QwB3SsYMbNnIM99n3p-75" style="edgeStyle=orthogonalEdgeStyle;rounded=0;orthogonalLoop=1;jettySize=auto;html=1;entryX=0.5;entryY=0;entryDx=0;entryDy=0;entryPerimeter=0;" edge="1" parent="d0QwB3SsYMbNnIM99n3p-8" source="d0QwB3SsYMbNnIM99n3p-73" target="d0QwB3SsYMbNnIM99n3p-74">
          <mxGeometry relative="1" as="geometry" />
        </mxCell>
        <mxCell id="d0QwB3SsYMbNnIM99n3p-99" value="" style="points=[[0.25,0.25,0],[0.5,0,0],[0.75,0.25,0],[1,0.5,0],[0.75,0.75,0],[0.5,1,0],[0.25,0.75,0],[0,0.5,0]];shape=mxgraph.bpmn.gateway2;html=1;verticalLabelPosition=bottom;labelBackgroundColor=#ffffff;verticalAlign=top;align=center;perimeter=rhombusPerimeter;outlineConnect=0;outline=none;symbol=none;gwType=exclusive;" vertex="1" parent="d0QwB3SsYMbNnIM99n3p-8">
          <mxGeometry x="139.5" y="2031" width="50" height="50" as="geometry" />
        </mxCell>
        <mxCell id="d0QwB3SsYMbNnIM99n3p-100" value="&lt;b&gt;Требуется правка/Изменение?&lt;/b&gt;" style="text;html=1;align=center;verticalAlign=middle;whiteSpace=wrap;rounded=0;fontSize=9;" vertex="1" parent="d0QwB3SsYMbNnIM99n3p-8">
          <mxGeometry x="48" y="2041" width="94.5" height="30" as="geometry" />
        </mxCell>
        <mxCell id="d0QwB3SsYMbNnIM99n3p-103" style="edgeStyle=orthogonalEdgeStyle;rounded=0;orthogonalLoop=1;jettySize=auto;html=1;entryX=0.5;entryY=0;entryDx=0;entryDy=0;entryPerimeter=0;" edge="1" parent="d0QwB3SsYMbNnIM99n3p-8" source="d0QwB3SsYMbNnIM99n3p-74" target="d0QwB3SsYMbNnIM99n3p-99">
          <mxGeometry relative="1" as="geometry" />
        </mxCell>
        <mxCell id="d0QwB3SsYMbNnIM99n3p-80" value="Создание отчета в виде презентации и отправка директору" style="points=[[0.25,0,0],[0.5,0,0],[0.75,0,0],[1,0.25,0],[1,0.5,0],[1,0.75,0],[0.75,1,0],[0.5,1,0],[0.25,1,0],[0,0.75,0],[0,0.5,0],[0,0.25,0]];shape=mxgraph.bpmn.task2;whiteSpace=wrap;rectStyle=rounded;size=10;html=1;container=1;expand=0;collapsible=0;taskMarker=user;" vertex="1" parent="d0QwB3SsYMbNnIM99n3p-8">
          <mxGeometry x="104.5" y="2134" width="120" height="80" as="geometry" />
        </mxCell>
        <mxCell id="d0QwB3SsYMbNnIM99n3p-101" style="edgeStyle=orthogonalEdgeStyle;rounded=0;orthogonalLoop=1;jettySize=auto;html=1;entryX=0.5;entryY=0;entryDx=0;entryDy=0;entryPerimeter=0;" edge="1" parent="d0QwB3SsYMbNnIM99n3p-8" source="d0QwB3SsYMbNnIM99n3p-99" target="d0QwB3SsYMbNnIM99n3p-80">
          <mxGeometry relative="1" as="geometry">
            <Array as="points">
              <mxPoint x="165" y="2092" />
            </Array>
            <mxPoint x="165" y="2118" as="targetPoint" />
          </mxGeometry>
        </mxCell>
        <mxCell id="d0QwB3SsYMbNnIM99n3p-102" value="Нет" style="edgeLabel;html=1;align=center;verticalAlign=middle;resizable=0;points=[];" connectable="0" vertex="1" parent="d0QwB3SsYMbNnIM99n3p-101">
          <mxGeometry x="-0.7476" relative="1" as="geometry">
            <mxPoint y="9" as="offset" />
          </mxGeometry>
        </mxCell>
        <mxCell id="d0QwB3SsYMbNnIM99n3p-152" style="edgeStyle=orthogonalEdgeStyle;rounded=0;orthogonalLoop=1;jettySize=auto;html=1;entryX=0;entryY=0.5;entryDx=0;entryDy=0;entryPerimeter=0;" edge="1" parent="1" source="d0QwB3SsYMbNnIM99n3p-121" target="7G96iJF4oocn01JMDjI9-38">
          <mxGeometry relative="1" as="geometry" />
        </mxCell>
        <mxCell id="d0QwB3SsYMbNnIM99n3p-153" style="edgeStyle=orthogonalEdgeStyle;rounded=0;orthogonalLoop=1;jettySize=auto;html=1;entryX=1;entryY=0.5;entryDx=0;entryDy=0;entryPerimeter=0;" edge="1" parent="1" source="7G96iJF4oocn01JMDjI9-77" target="d0QwB3SsYMbNnIM99n3p-73">
          <mxGeometry relative="1" as="geometry" />
        </mxCell>
        <mxCell id="d0QwB3SsYMbNnIM99n3p-154" style="edgeStyle=orthogonalEdgeStyle;rounded=0;orthogonalLoop=1;jettySize=auto;html=1;entryX=0;entryY=0.5;entryDx=0;entryDy=0;entryPerimeter=0;" edge="1" parent="1" source="d0QwB3SsYMbNnIM99n3p-99" target="Vr6VP41Z2sSly5By1xP8-8">
          <mxGeometry relative="1" as="geometry" />
        </mxCell>
        <mxCell id="d0QwB3SsYMbNnIM99n3p-155" value="Да" style="edgeLabel;html=1;align=center;verticalAlign=middle;resizable=0;points=[];" connectable="0" vertex="1" parent="d0QwB3SsYMbNnIM99n3p-154">
          <mxGeometry x="-0.6065" relative="1" as="geometry">
            <mxPoint as="offset" />
          </mxGeometry>
        </mxCell>
        <mxCell id="d0QwB3SsYMbNnIM99n3p-156" style="edgeStyle=orthogonalEdgeStyle;rounded=0;orthogonalLoop=1;jettySize=auto;html=1;entryX=1;entryY=0.5;entryDx=0;entryDy=0;entryPerimeter=0;exitX=0.5;exitY=0;exitDx=0;exitDy=0;exitPerimeter=0;" edge="1" parent="1" source="Vr6VP41Z2sSly5By1xP8-8" target="d0QwB3SsYMbNnIM99n3p-74">
          <mxGeometry relative="1" as="geometry">
            <Array as="points">
              <mxPoint x="333" y="2000" />
            </Array>
          </mxGeometry>
        </mxCell>
        <mxCell id="7G96iJF4oocn01JMDjI9-79" value="&lt;font style=&quot;font-size: 10px;&quot;&gt;Фиксация проведенной работы и заполнение акта выполненных работ&lt;/font&gt;" style="points=[[0.25,0,0],[0.5,0,0],[0.75,0,0],[1,0.25,0],[1,0.5,0],[1,0.75,0],[0.75,1,0],[0.5,1,0],[0.25,1,0],[0,0.75,0],[0,0.5,0],[0,0.25,0]];shape=mxgraph.bpmn.task2;whiteSpace=wrap;rectStyle=rounded;size=10;html=1;container=1;expand=0;collapsible=0;taskMarker=user;" vertex="1" parent="1">
          <mxGeometry x="401" y="2285" width="96" height="80" as="geometry" />
        </mxCell>
        <mxCell id="7G96iJF4oocn01JMDjI9-86" style="edgeStyle=orthogonalEdgeStyle;rounded=0;orthogonalLoop=1;jettySize=auto;html=1;entryX=0.5;entryY=0;entryDx=0;entryDy=0;entryPerimeter=0;" edge="1" parent="1" source="7G96iJF4oocn01JMDjI9-79" target="7G96iJF4oocn01JMDjI9-116">
          <mxGeometry relative="1" as="geometry">
            <Array as="points" />
            <mxPoint x="428" y="2215" as="targetPoint" />
          </mxGeometry>
        </mxCell>
        <mxCell id="7G96iJF4oocn01JMDjI9-116" value="" style="points=[[0.145,0.145,0],[0.5,0,0],[0.855,0.145,0],[1,0.5,0],[0.855,0.855,0],[0.5,1,0],[0.145,0.855,0],[0,0.5,0]];shape=mxgraph.bpmn.event;html=1;verticalLabelPosition=bottom;labelBackgroundColor=#ffffff;verticalAlign=top;align=center;perimeter=ellipsePerimeter;outlineConnect=0;aspect=fixed;outline=end;symbol=terminate2;" vertex="1" parent="1">
          <mxGeometry x="429" y="2405" width="40" height="40" as="geometry" />
        </mxCell>
        <mxCell id="fY97J-WMy2Ej0dHMJJVT-20" style="edgeStyle=orthogonalEdgeStyle;rounded=0;orthogonalLoop=1;jettySize=auto;html=1;entryX=0;entryY=0.5;entryDx=0;entryDy=0;entryPerimeter=0;exitX=1.006;exitY=0.486;exitDx=0;exitDy=0;exitPerimeter=0;" edge="1" parent="1" source="fY97J-WMy2Ej0dHMJJVT-27" target="fY97J-WMy2Ej0dHMJJVT-21">
          <mxGeometry relative="1" as="geometry">
            <mxPoint x="390" y="2205" as="sourcePoint" />
          </mxGeometry>
        </mxCell>
        <mxCell id="fY97J-WMy2Ej0dHMJJVT-22" style="edgeStyle=orthogonalEdgeStyle;rounded=0;orthogonalLoop=1;jettySize=auto;html=1;" edge="1" parent="1" source="fY97J-WMy2Ej0dHMJJVT-21" target="7G96iJF4oocn01JMDjI9-79">
          <mxGeometry relative="1" as="geometry" />
        </mxCell>
        <mxCell id="fY97J-WMy2Ej0dHMJJVT-21" value="" style="points=[[0.25,0.25,0],[0.5,0,0],[0.75,0.25,0],[1,0.5,0],[0.75,0.75,0],[0.5,1,0],[0.25,0.75,0],[0,0.5,0]];shape=mxgraph.bpmn.gateway2;html=1;verticalLabelPosition=bottom;labelBackgroundColor=#ffffff;verticalAlign=top;align=center;perimeter=rhombusPerimeter;outlineConnect=0;outline=none;symbol=none;gwType=parallel;" vertex="1" parent="1">
          <mxGeometry x="424" y="2178" width="50" height="50" as="geometry" />
        </mxCell>
        <mxCell id="7G96iJF4oocn01JMDjI9-118" value="&lt;span style=&quot;font-size: 10px;&quot;&gt;&lt;b&gt;Тестирование на итерации окончено. Ожидание следующей&lt;/b&gt;&lt;/span&gt;" style="text;html=1;align=center;verticalAlign=middle;whiteSpace=wrap;rounded=0;" vertex="1" parent="1">
          <mxGeometry x="320" y="2410" width="104" height="30" as="geometry" />
        </mxCell>
        <mxCell id="Vr6VP41Z2sSly5By1xP8-11" style="edgeStyle=orthogonalEdgeStyle;rounded=0;orthogonalLoop=1;jettySize=auto;html=1;entryX=0.5;entryY=0;entryDx=0;entryDy=0;entryPerimeter=0;exitX=1;exitY=0.5;exitDx=0;exitDy=0;exitPerimeter=0;" edge="1" parent="1" source="7G96iJF4oocn01JMDjI9-77" target="fY97J-WMy2Ej0dHMJJVT-21">
          <mxGeometry relative="1" as="geometry" />
        </mxCell>
        <mxCell id="fY97J-WMy2Ej0dHMJJVT-19" style="edgeStyle=orthogonalEdgeStyle;rounded=0;orthogonalLoop=1;jettySize=auto;html=1;entryX=0;entryY=0.5;entryDx=0;entryDy=0;entryPerimeter=0;" edge="1" parent="1" source="d0QwB3SsYMbNnIM99n3p-80" target="fY97J-WMy2Ej0dHMJJVT-27">
          <mxGeometry relative="1" as="geometry">
            <mxPoint x="260" y="2205" as="targetPoint" />
          </mxGeometry>
        </mxCell>
        <mxCell id="fY97J-WMy2Ej0dHMJJVT-28" value="Директор CORETECH" style="rounded=0;whiteSpace=wrap;html=1;" vertex="1" parent="1">
          <mxGeometry x="-200" y="2110" width="120" height="200" as="geometry" />
        </mxCell>
        <mxCell id="fY97J-WMy2Ej0dHMJJVT-31" style="edgeStyle=orthogonalEdgeStyle;rounded=0;orthogonalLoop=1;jettySize=auto;html=1;entryX=0;entryY=0.75;entryDx=0;entryDy=0;entryPerimeter=0;dashed=1;" edge="1" parent="1" source="fY97J-WMy2Ej0dHMJJVT-28" target="d0QwB3SsYMbNnIM99n3p-80">
          <mxGeometry relative="1" as="geometry">
            <Array as="points">
              <mxPoint x="-50" y="2224" />
              <mxPoint x="-50" y="2224" />
            </Array>
          </mxGeometry>
        </mxCell>
        <mxCell id="fY97J-WMy2Ej0dHMJJVT-32" style="edgeStyle=orthogonalEdgeStyle;rounded=0;orthogonalLoop=1;jettySize=auto;html=1;entryX=1.003;entryY=0.352;entryDx=0;entryDy=0;entryPerimeter=0;dashed=1;" edge="1" parent="1" source="d0QwB3SsYMbNnIM99n3p-80" target="fY97J-WMy2Ej0dHMJJVT-28">
          <mxGeometry relative="1" as="geometry">
            <mxPoint x="-50" y="2180" as="targetPoint" />
            <Array as="points">
              <mxPoint x="-30" y="2180" />
            </Array>
          </mxGeometry>
        </mxCell>
      </root>
    </mxGraphModel>
  </diagram>
</mxfile>
